HIERARCHY
ROOT Hips
{
	OFFSET 0.000000 0.000000 0.000000
	CHANNELS 6 Xposition Yposition Zposition Yrotation Xrotation Zrotation
	JOINT Chest
	{
		OFFSET 0.000000 -0.009281 11.569106
		CHANNELS 3 Yrotation Xrotation Zrotation
		JOINT Chest2
		{
			OFFSET -0.000000 0.016865 9.269641
			CHANNELS 3 Yrotation Xrotation Zrotation
			JOINT Chest3
			{
				OFFSET -0.000000 0.000001 8.374491
				CHANNELS 3 Yrotation Xrotation Zrotation
				JOINT Chest4
				{
					OFFSET -0.000000 0.000001 8.374493
					CHANNELS 3 Yrotation Xrotation Zrotation
					JOINT Neck
					{
						OFFSET -0.000000 0.000002 12.152554
						CHANNELS 3 Yrotation Xrotation Zrotation
						JOINT Head
						{
							OFFSET -0.000000 0.040101 7.802319
							CHANNELS 3 Yrotation Xrotation Zrotation
							End Site
							{
								OFFSET -0.000000 0.020947 14.853096
							}
						}
					}
					JOINT RightCollar
					{
						OFFSET 2.894404 0.000001 6.791374
						CHANNELS 3 Yrotation Xrotation Zrotation
						JOINT RightShoulder
						{
							OFFSET 13.574684 0.000001 0.000000
							CHANNELS 3 Yrotation Xrotation Zrotation
							JOINT RightElbow
							{
								OFFSET 23.923903 0.000002 0.000000
								CHANNELS 3 Yrotation Xrotation Zrotation
								JOINT RightWrist
								{
									OFFSET 19.846718 0.012767 0.000000
									CHANNELS 3 Yrotation Xrotation Zrotation
									End Site
									{
										OFFSET 14.973145 0.000001 0.000000
									}
								}
							}
						}
					}
					JOINT LeftCollar
					{
						OFFSET -2.894404 0.000001 6.791374
						CHANNELS 3 Yrotation Xrotation Zrotation
						JOINT LeftShoulder
						{
							OFFSET -13.574684 -0.000001 0.000000
							CHANNELS 3 Yrotation Xrotation Zrotation
							JOINT LeftElbow
							{
								OFFSET -23.923903 -0.000002 0.000000
								CHANNELS 3 Yrotation Xrotation Zrotation
								JOINT LeftWrist
								{
									OFFSET -19.846718 0.012763 0.000000
									CHANNELS 3 Yrotation Xrotation Zrotation
									End Site
									{
										OFFSET -14.973145 -0.000001 0.000000
									}
								}
							}
						}
					}
				}
			}
		}
	}
	JOINT RightHip
	{
		OFFSET 9.469263 0.004643 0.045487
		CHANNELS 3 Yrotation Xrotation Zrotation
		JOINT RightKnee
		{
			OFFSET 0.000000 0.002661 -40.478676
			CHANNELS 3 Yrotation Xrotation Zrotation
			JOINT RightAnkle
			{
				OFFSET 0.000000 0.049106 -35.224068
				CHANNELS 3 Yrotation Xrotation Zrotation
				JOINT RightToe
				{
					OFFSET -0.000001 12.539529 -6.151390
					CHANNELS 3 Yrotation Xrotation Zrotation
					End Site
					{
						OFFSET -0.000001 5.044994 -1.291870
					}
				}
			}
		}
	}
	JOINT LeftHip
	{
		OFFSET -9.469263 0.004641 0.045487
		CHANNELS 3 Yrotation Xrotation Zrotation
		JOINT LeftKnee
		{
			OFFSET 0.000000 0.002661 -40.478676
			CHANNELS 3 Yrotation Xrotation Zrotation
			JOINT LeftAnkle
			{
				OFFSET 0.000000 0.049106 -35.224068
				CHANNELS 3 Yrotation Xrotation Zrotation
				JOINT LeftToe
				{
					OFFSET -0.000001 12.539529 -6.151390
					CHANNELS 3 Yrotation Xrotation Zrotation
					End Site
					{
						OFFSET -0.000001 5.044994 -1.291870
					}
				}
			}
		}
	}
}
MOTION
Frames: 5
Frame Time: 0.016667
11.186437 6.020110 83.081985 -5.950515 -5.179858 -119.928232 -0.836913 -0.595055 1.611223 -0.372551 -0.265418 0.749957 -0.372552 -0.265417 0.749956 -0.279089 -0.199521 0.562303 4.288068 -17.259212 -17.776962 1.995837 3.324721 -31.351514 1.827712 2.951535 -5.666215 74.108775 29.877218 74.253978 55.740259 38.746792 69.891468 -52.128058 36.359098 -9.236399 -11.524728 -4.213397 -15.816444 -71.635536 -16.810735 -37.176935 -53.999506 4.398778 -50.834414 58.277469 36.276306 18.490427 1.161350 -9.893637 1.728140 -0.828802 -1.798311 2.956409 1.896617 4.086351 2.663660 0.028819 -0.052135 0.028296 1.180723 -11.936194 2.457916 -0.088219 -0.970777 3.462673 0.074552 5.339172 2.291934 -0.027494 0.014769 -0.030592 
11.179302 6.022121 83.082527 -5.957316 -5.175023 -119.926155 -0.843499 -0.589014 1.607443 -0.375523 -0.262722 0.747829 -0.375524 -0.262722 0.747831 -0.281322 -0.197502 0.560709 4.280689 -17.264013 -17.808088 1.974061 3.309950 -31.410848 1.822614 2.962319 -5.657765 74.116077 29.868871 74.255303 55.746085 38.738101 69.897567 -52.140660 36.395575 -9.217045 -11.527581 -4.214137 -15.811456 -71.644600 -16.843204 -37.181982 -53.982083 4.415538 -50.864549 58.309038 36.299525 18.505127 1.155793 -9.892526 1.746826 -0.825266 -1.799251 2.952180 1.886746 4.083103 2.641011 0.029420 -0.052621 0.028851 1.167048 -11.936125 2.470186 -0.071931 -0.961490 3.440400 0.071711 5.323795 2.295862 -0.029298 0.016503 -0.031963 
11.170665 6.025074 83.083130 -5.963874 -5.169694 -119.916702 -0.851814 -0.582351 1.604119 -0.379235 -0.259984 0.745797 -0.379235 -0.259983 0.745797 -0.284109 -0.195451 0.559187 4.277833 -17.273255 -17.838699 1.961602 3.288138 -31.467187 1.819859 2.966056 -5.656264 74.112477 29.856400 74.252250 55.745385 38.728651 69.908209 -52.083809 36.470830 -9.166734 -11.531433 -4.218239 -15.815728 -71.646936 -16.873865 -37.190377 -53.979303 4.438905 -50.893918 58.375940 36.335657 18.535134 1.147441 -9.892379 1.758931 -0.818492 -1.797073 2.942578 1.880206 4.076718 2.642030 0.028033 -0.051681 0.030068 1.149291 -11.933893 2.478734 -0.050128 -0.951742 3.426810 0.066412 5.308012 2.306013 -0.029787 0.016976 -0.033451 
11.162984 6.029630 83.083603 -5.966487 -5.163468 -119.902263 -0.857099 -0.577947 1.596109 -0.381273 -0.257867 0.741685 -0.381273 -0.257867 0.741687 -0.285641 -0.193864 0.556104 4.275228 -17.281290 -17.862015 1.951549 3.269600 -31.510122 1.810029 2.973703 -5.643531 74.112942 29.851239 74.247558 55.722947 38.710172 69.907772 -52.019882 36.531543 -9.122160 -11.538106 -4.218838 -15.813495 -71.661887 -16.902037 -37.205721 -54.029474 4.476042 -50.930668 58.483700 36.390712 18.563727 1.147151 -9.891191 1.770029 -0.820848 -1.789066 2.934348 1.877695 4.068333 2.614240 0.026254 -0.051176 0.031484 1.133281 -11.925104 2.482861 -0.024058 -0.945331 3.396392 0.057696 5.293500 2.321116 -0.029345 0.016766 -0.035189 
11.155607 6.032975 83.083595 -5.970489 -5.157187 -119.881991 -0.863851 -0.574015 1.587591 -0.384109 -0.255698 0.737575 -0.384110 -0.255698 0.737578 -0.287774 -0.192237 0.553025 4.276664 -17.289077 -17.881217 1.950018 3.252991 -31.544143 1.803596 2.986398 -5.630742 74.110599 29.867584 74.244723 55.712098 38.694791 69.893285 -52.024407 36.568126 -9.101761 -11.539675 -4.221080 -15.813833 -71.678177 -16.922675 -37.213753 -54.103503 4.505478 -50.976174 58.601336 36.467493 18.607450 1.143465 -9.894555 1.779917 -0.823541 -1.778623 2.903396 1.878845 4.060728 2.635958 0.026397 -0.050981 0.034309 1.119543 -11.918239 2.482945 -0.002925 -0.937701 3.392505 0.051479 5.281506 2.296201 -0.030745 0.014156 -0.037854 
